<?xml version="1.0" standalone="no"?>
<!DOCTYPE svg PUBLIC "-//W3C//DTD SVG 1.1//EN" "http://www.w3.org/Graphics/SVG/1.1/DTD/svg11.dtd" >
<svg xmlns="http://www.w3.org/2000/svg">
<metadata>Generated by IcoMoon</metadata>
<defs>
<font id="icomoon" horiz-adv-x="1024">
<font-face units-per-em="1024" ascent="960" descent="-64" />
<missing-glyph horiz-adv-x="1024" />
<glyph unicode="&#x20;" horiz-adv-x="512" d="" />
<glyph unicode="&#xe900;" glyph-name="io-arrow-down" horiz-adv-x="1434" d="M1173.449 837.12l-509.233-509.233-509.232 509.233-154.984-154.984 664.216-664.216 664.218 664.216-154.984 154.984z" />
<glyph unicode="&#xe901;" glyph-name="io-arrow-up" horiz-adv-x="1434" d="M155.703 17.92l509.233 509.233 509.232-509.233 154.984 154.984-664.216 664.216-664.218-664.216 154.984-154.984z" />
<glyph unicode="&#xe902;" glyph-name="io-book" d="M1005.162 727.976h-45.086v42.659c0 9.555-7.153 17.595-16.64 18.71l-261.221 30.678c-58.581 6.882-117.22-2.914-170.218-28.337-53 25.424-111.629 35.222-170.218 28.337l-261.221-30.678c-9.487-1.115-16.64-9.155-16.64-18.71v-42.659h-45.081c-10.406 0-18.838-8.434-18.838-18.838v-616.461c0-10.404 8.432-18.838 18.838-18.838h986.324c10.406 0 18.838 8.434 18.838 18.838v616.461c0 10.404-8.434 18.838-18.838 18.838zM677.82 782.604l244.578-28.724v-560.261l-240.182 28.207c-51.724 6.076-103.489-0.872-151.38-20.076v557.148c45.892 21.438 96.466 29.638 146.984 23.706zM346.178 782.604c50.516 5.935 101.095-2.268 146.984-23.706v-557.153c-36.631 14.689-75.523 22.221-114.932 22.221-12.114 0-24.283-0.711-36.448-2.137l-240.185-28.207v560.258l244.58 28.724zM986.324 111.515h-948.648v578.785h26.245v-517.86c0-5.38 2.298-10.502 6.32-14.076 4.019-3.574 9.376-5.262 14.716-4.634l261.221 30.678c54.274 6.377 108.628-3.547 157.152-28.694 5.435-2.818 11.901-2.818 17.336 0 48.522 25.148 102.856 35.071 157.152 28.694l261.218-30.678c0.733-0.085 1.467-0.128 2.198-0.128 4.589 0 9.052 1.678 12.518 4.762 4.021 3.574 6.32 8.696 6.32 14.076v517.86h26.248v-578.785zM574.223 676.48c33.763 9.173 68.51 11.752 103.25 7.676l196.129-23.028c0.748-0.088 1.489-0.131 2.223-0.131 9.422 0 17.56 7.055 18.685 16.643 1.211 10.333-6.181 19.692-16.512 20.905l-196.131 23.028c-39.56 4.644-79.097 1.703-117.519-8.738-10.042-2.728-15.967-13.079-13.239-23.118s13.086-15.962 23.116-13.237zM147.474 660.998c0.733 0 1.477 0.043 2.223 0.131l196.111 23.025c34.695 4.041 69.846 1.402 103.255-7.698 10.034-2.73 20.393 3.185 23.126 13.227 2.735 10.039-3.187 20.393-13.227 23.126-38.038 10.361-78.020 13.37-117.534 8.766l-196.129-23.028c-10.331-1.213-17.725-10.572-16.512-20.905 1.128-9.587 9.266-16.643 18.687-16.643zM574.223 590.074c33.763 9.173 68.505 11.752 103.25 7.676l196.129-23.028c0.748-0.088 1.489-0.131 2.223-0.131 9.422 0 17.56 7.055 18.685 16.643 1.211 10.333-6.181 19.692-16.512 20.905l-196.131 23.028c-39.555 4.642-79.095 1.703-117.519-8.738-10.042-2.728-15.967-13.079-13.239-23.118 2.728-10.037 13.086-15.965 23.116-13.237zM147.474 574.594c0.733 0 1.477 0.043 2.223 0.131l196.111 23.025c34.672 4.039 69.844 1.402 103.255-7.698 10.034-2.73 20.393 3.185 23.126 13.227 2.735 10.039-3.187 20.393-13.227 23.126-38.043 10.361-78.037 13.37-117.534 8.766l-196.129-23.028c-10.331-1.213-17.725-10.572-16.512-20.905 1.128-9.587 9.266-16.643 18.687-16.643zM574.223 503.67c33.763 9.173 68.505 11.752 103.25 7.676l196.129-23.028c0.748-0.088 1.489-0.131 2.223-0.131 9.422 0 17.56 7.055 18.685 16.643 1.211 10.333-6.181 19.692-16.512 20.905l-196.131 23.028c-39.555 4.642-79.095 1.7-117.519-8.738-10.042-2.728-15.967-13.079-13.239-23.118s13.086-15.965 23.116-13.237zM147.474 488.188c0.733 0 1.477 0.043 2.223 0.131l196.111 23.025c34.67 4.039 69.844 1.402 103.255-7.698 10.034-2.733 20.393 3.185 23.126 13.227 2.735 10.039-3.187 20.393-13.227 23.126-38.040 10.361-78.035 13.37-117.534 8.768l-196.129-23.028c-10.331-1.213-17.725-10.572-16.512-20.905 1.128-9.59 9.266-16.645 18.687-16.645zM574.223 417.266c33.758 9.173 68.5 11.755 103.25 7.676l196.129-23.028c0.748-0.088 1.489-0.131 2.223-0.131 9.422 0 17.56 7.055 18.685 16.643 1.211 10.333-6.181 19.692-16.512 20.905l-196.131 23.028c-39.555 4.639-79.092 1.703-117.519-8.738-10.042-2.728-15.967-13.079-13.239-23.118s13.086-15.967 23.116-13.237zM147.474 401.784c0.733 0 1.477 0.043 2.223 0.131l196.111 23.025c34.662 4.041 69.839 1.404 103.255-7.698 10.034-2.73 20.393 3.185 23.126 13.227 2.735 10.039-3.187 20.393-13.227 23.126-38.040 10.361-78.045 13.37-117.534 8.766l-196.129-23.028c-10.331-1.213-17.725-10.572-16.512-20.905 1.128-9.587 9.266-16.643 18.687-16.643zM878 352.928l-196.131 23.028c-39.562 4.642-79.1 1.7-117.519-8.738-10.042-2.728-15.967-13.079-13.239-23.118 2.728-10.042 13.086-15.97 23.116-13.239 33.763 9.17 68.51 11.75 103.25 7.676l196.129-23.028c0.748-0.088 1.489-0.131 2.223-0.131 9.422 0 17.56 7.055 18.685 16.643 1.211 10.333-6.181 19.695-16.512 20.908zM147.474 315.378c0.733 0 1.477 0.043 2.223 0.131l196.111 23.025c34.672 4.039 69.844 1.402 103.255-7.698 10.034-2.733 20.393 3.185 23.126 13.227 2.735 10.039-3.187 20.393-13.227 23.126-38.043 10.361-78.037 13.37-117.534 8.766l-196.129-23.028c-10.331-1.213-17.725-10.572-16.512-20.905 1.128-9.587 9.266-16.643 18.687-16.643z" />
<glyph unicode="&#xe903;" glyph-name="io-calendar" d="M83.349 22.524h856.509c18.257 0 32.546 14.288 32.546 32.546v726.326c0 18.257-14.288 32.546-32.546 32.546h-161.141v27.783c0 18.257-14.288 32.546-32.546 32.546s-32.546-14.288-32.546-32.546v-27.783h-398.487v27.783c0 18.257-14.288 32.546-32.546 32.546s-32.546-14.288-32.546-32.546v-27.783h-166.698c-18.257 0-32.546-14.288-32.546-32.546v-727.119c0-17.464 15.082-31.752 32.546-31.752zM115.895 748.85h134.152v-17.464c0-18.257 14.288-32.546 32.546-32.546s32.546 14.288 32.546 32.546v17.464h398.487v-17.464c0-18.257 14.288-32.546 32.546-32.546s32.546 14.288 32.546 32.546v17.464h129.389v-84.143h-792.211v84.143zM115.895 599.616h791.417v-512.794h-791.417v512.794zM746.171 450.381h-468.341c-18.257 0-32.546-14.288-32.546-32.546s14.288-32.546 32.546-32.546h468.341c18.257 0 32.546 14.288 32.546 32.546s-14.288 32.546-32.546 32.546zM512 293.209h-234.171c-18.257 0-32.546-14.288-32.546-32.546s14.288-32.546 32.546-32.546h234.171c18.257 0 32.546 14.288 32.546 32.546s-14.288 32.546-32.546 32.546z" />
<glyph unicode="&#xe904;" glyph-name="io-check" d="M940.719 448c0-236.771-191.943-428.719-428.719-428.719v-77.947c279.826 0 506.667 226.841 506.667 506.667h-77.947zM512 19.281c-236.771 0-428.719 191.943-428.719 428.719h-77.947c0-279.826 226.841-506.667 506.667-506.667v77.947zM83.281 448c0 236.771 191.942 428.719 428.719 428.719v77.947c-279.826 0-506.667-226.841-506.667-506.667h77.947zM512 876.719c236.771 0 428.719-191.942 428.719-428.719h77.947c0 279.826-226.841 506.667-506.667 506.667v-77.947zM418.711 315.705l-121.378 119.409-41.333-40.376 162.711-160.072 349.289 343.624-41.041 40.376-308.248-302.962z" />
<glyph unicode="&#xe905;" glyph-name="io-check-green" d="M512 960c-282.752 0-512-229.248-512-512s229.248-512 512-512c282.795 0 512 229.248 512 512s-229.205 512-512 512zM418.731 234.667l-162.731 160.085 41.344 40.363 121.429-119.424 308.267 302.976 41.003-40.363-349.312-343.637z" />

<glyph unicode="&#xe907;" glyph-name="io-dashboard" d="M529.938 290.428c23.070 0 41.815 18.833 41.815 41.927 0 23.044-18.745 41.746-41.815 41.746l-189.453 139.345 147.636-183.781c1.37-21.877 19.597-39.237 41.817-39.237zM303.198 166.967h417.606v-99.101h-417.606v99.101zM874.039 678.17c-96.707 96.705-225.281 149.961-362.039 149.961-136.76 0-265.336-53.257-362.041-149.961s-149.959-225.279-149.959-362.039c0-88.304 22.247-173.168 64.016-248.265h95.695l69.991 40.414-30.91 53.541-89.999-51.965c-31.796 61.906-49.757 132.031-49.757 206.276 0 13.139 0.597 26.143 1.697 39.003l107.311-18.921 10.735 60.884-108.574 19.143c19.401 85.661 63.145 162.182 123.551 221.889l73.563-87.671 47.36 39.738-74.121 88.332c67.967 51.037 150.701 83.405 240.531 89.486v-117.254h61.82v117.254c89.829-6.085 172.564-38.451 240.533-89.488l-74.124-88.33 47.358-39.738 73.565 87.674c60.404-59.71 104.148-136.23 123.549-221.889l-108.571-19.148 10.738-60.879 107.304 18.924c1.101-12.862 1.697-25.863 1.697-39.003 0-74.25-17.954-144.378-49.755-206.279l-90.001 51.961-30.908-53.539 69.989-40.409h95.7c41.772 75.098 64.016 159.962 64.016 248.265 0.002 136.758-53.259 265.334-149.961 362.034z" />
<glyph unicode="&#xe908;" glyph-name="io-download" horiz-adv-x="724" d="M231.91 597.667v-26.186h26.186v26.186h-26.186zM68.246 597.667v26.185h-63.215l44.702-44.699 18.513 18.515zM231.91 761.33v26.186h-26.186v-26.186h26.186zM493.771 761.33h26.186v26.186h-26.186v-26.186zM493.771 597.667h-26.186v-26.186h26.186v26.186zM657.432 597.667l18.513-18.515 44.707 44.699h-63.22v-26.185zM362.84 303.074l-18.513-18.512 18.513-18.52 18.516 18.52-18.516 18.512zM146.805 172.143v26.186h-26.186v-26.186h26.186zM146.805 132.865h-26.186v-26.186h26.186v26.186zM578.876 172.143h26.186v26.186h-26.186v-26.186zM578.876 132.865v-26.186h26.186v26.186h-26.186zM231.91 623.853h-163.664v-52.372h163.664v52.372zM205.723 761.33v-163.663h52.373v163.663h-52.373zM493.771 787.516h-261.86v-52.373h261.86v52.373zM519.956 597.667v163.663h-52.373v-163.663h52.373zM657.432 623.853h-163.662v-52.372h163.663v52.372zM381.356 284.563l294.59 294.591-37.023 37.028-294.596-294.596 37.029-37.023zM49.732 579.153l294.594-294.591 37.029 37.023-294.596 294.597-37.027-37.029zM120.619 172.143v-39.278h52.373v39.278h-52.373zM578.876 198.329h-432.071v-52.373h432.071v52.373zM605.063 132.865v39.278h-52.373v-39.278h52.373zM146.805 106.679h432.071v52.373h-432.071v-52.373z" />
<glyph unicode="&#xe909;" glyph-name="io-friend" horiz-adv-x="1536" d="M73.143 9.143h-36.571v-36.571h36.571v36.571zM950.923 9.143v-36.571h36.571v36.571h-36.571zM953.11 381.86l-3.752 36.378-95.312-9.831 77.619-56.174 21.445 29.627zM1076.304 9.143h-36.571v-36.571h36.571v36.571zM1452.405 9.143v-36.571h36.571v36.571h-36.571zM512.064 421.817c-76.15-0.125-192.717-19.644-287.891-57.48-47.843-19.214-94.727-45.468-127.819-75.652-34.485-31.823-59.782-72.882-59.782-122.868h73.143c0 23.147 11.284 46.083 36.243 69.116 26.352 24.67 61.773 44.131 105.377 61.492 87.72 35.312 190.613 52.375 260.729 52.25v73.143zM36.571 165.816v-156.673h73.143v156.673h-73.143zM73.143-27.429h877.78v73.143h-877.78v-73.143zM987.494 9.143v156.673h-73.143v-156.673h73.143zM987.494 165.816c0 49.981-25.285 91.038-59.758 122.863-33.083 30.186-79.952 56.441-127.788 75.656-95.151 37.838-211.704 57.356-287.885 57.482v-73.143c70.146 0.124 173.022-16.938 260.718-52.249 43.588-17.36 78.996-36.82 105.343-61.489 24.942-23.030 36.228-45.967 36.228-69.12h73.143zM1013.672 421.817c-19.259-0.014-41.567-1.243-64.315-3.579l7.504-72.757c21.014 2.178 39.57 3.207 56.81 3.193v73.143zM931.664 352.233c66.56-48.167 108.069-108.878 108.069-186.416h73.143c0 108.412-59.692 188.763-138.328 245.671l-42.884-59.255zM1039.733 165.816v-156.673h73.143v156.673h-73.143zM1076.304-27.429h376.101v73.143h-376.101v-73.143zM1488.976 9.143v156.673h-73.143v-156.673h73.143zM1488.976 165.816c0 49.977-25.278 91.034-59.75 122.861-33.075 30.186-79.931 56.442-127.751 75.657-95.13 37.838-211.653 57.358-287.803 57.483v-73.143c70.115 0.124 172.954-16.937 260.623-52.247 43.586-17.36 78.98-36.819 105.311-61.488 24.942-23.029 36.228-45.967 36.228-69.123h73.143zM512.046 923.429c-124.035 0-224.653-100.713-224.653-224.716h73.143c0 83.64 67.903 151.573 151.51 151.573v73.143zM287.393 698.713c0-124.019 100.634-224.653 224.653-224.653v73.143c-83.623 0-151.51 67.887-151.51 151.51h-73.143zM512.046 474.059c124.233 0 224.089 100.786 224.089 224.653h-73.143c0-83.775-67.411-151.51-150.946-151.51v-73.143zM736.135 698.713c0 123.852-99.841 224.716-224.089 224.716v-73.143c83.52 0 150.946-67.783 150.946-151.573h73.143zM1013.68 923.429c-124.16 0-224.715-100.713-224.715-224.716h73.141c0 83.64 67.84 151.573 151.574 151.573v73.143zM788.964 698.713c0-124.019 100.57-224.653 224.715-224.653v73.143c-83.749 0-151.574 67.887-151.574 151.51h-73.141zM1013.68 474.059c124.197 0 223.963 100.809 223.963 224.653h-73.143c0-83.798-67.372-151.51-150.821-151.51v-73.143zM1237.643 698.713c0 123.828-99.752 224.716-223.963 224.716v-73.143c83.434 0 150.821-67.759 150.821-151.573h73.143z" />
<glyph unicode="&#xe90a;" glyph-name="io-group" horiz-adv-x="1028" d="M614.031 546.463v-103.396c0-19.474 7.68-37.577 20.847-51.292v-35.105c0-15.085 12.067-27.154 27.15-27.154s27.152 12.071 27.152 27.154v47.724c0 9.049-4.658 17.551-12.069 22.488-5.483 3.566-8.774 9.599-8.774 16.187v103.396c0 36.203 29.622 65.823 65.821 65.823h22.219c36.201 0 65.821-29.62 65.821-65.823v-103.398c0-6.584-3.291-12.619-8.778-16.187-7.676-4.937-12.067-13.438-12.067-22.488v-99.563c0-12.065 7.132-23.311 17.824-28.521 12.894-6.309 79.814-40.042 141.798-90.783 5.212-4.389 8.23-10.696 8.23-17.828v-43.61h-190.346c-15.083 0-27.15-12.067-27.15-27.152s12.067-27.15 27.15-27.15h217.494c15.087 0 27.152 12.067 27.152 27.15v70.762c0 23.309-10.148 44.978-28.246 59.788-54.581 44.709-112.997 77.344-139.603 91.331v73.228c13.165 13.714 20.845 31.818 20.845 51.29v103.402c0 66.371-54.031 120.131-120.127 120.131h-22.219c-66.092-0.273-120.123-54.031-120.123-120.404zM514.747 545.091v133.568c0 81.458-66.1 147.556-147.558 147.556h-28.798c-81.458 0-147.556-66.1-147.556-147.556v-133.568c0-24.134 9.873-46.624 26.879-63.080v-102.852c-32.089-16.45-110.534-59.239-183.762-119.579-21.394-17.553-33.461-43.335-33.461-71.037v-91.608c0-15.089 12.069-27.15 27.156-27.15h650.011c15.085 0 27.15 12.063 27.15 27.15v91.608c0 27.702-12.067 53.483-33.459 71.037-73.23 60.061-151.672 103.123-183.76 119.579v102.852c17.284 16.181 27.158 38.946 27.158 63.080zM637.069 217.618c8.78-7.132 13.714-17.828 13.714-29.074v-64.456h-595.705v64.456c0 11.244 4.931 21.944 13.708 29.074 80.637 66.367 168.131 110.53 184.858 118.756 11.244 5.487 18.649 17.275 18.649 29.618v128.906c0 9.051-4.658 17.555-12.065 22.49-9.326 6.311-14.812 16.456-14.812 27.427v133.566c0 51.563 41.962 93.252 93.248 93.252h28.798c51.563 0 93.252-41.964 93.252-93.252v-133.566c0-10.971-5.489-21.394-14.81-27.427-7.68-4.935-12.071-13.438-12.071-22.49v-128.906c0-12.615 7.405-24.134 18.651-29.618 16.458-8.226 103.956-52.656 184.585-118.756z" />
<glyph unicode="&#xe90b;" glyph-name="io-hashtag" d="M737.25 541.252l-44.25-233.25h203.999v-101.248h-224.248l-51.75-270.754h-108l53.25 270.754h-213.75l-52.5-270.754h-105.749l49.5 270.754h-191.25v101.248h210.75l46.5 233.25h-201.75v100.497h219.75l51 265.501h108l-50.25-265.501h215.251l51.75 265.501h105.75l-51.75-265.501h192.747v-100.497h-212.996zM371.25 308.002h214.5l45 233.25h-213.75l-45.75-233.25z" />
<glyph unicode="&#xe90c;" glyph-name="io-home" d="M35.372 360.792h83.409v-333.632c0-19.66 16.086-35.746 35.746-35.746h244.267c19.66 0 35.746 16.086 35.746 35.746v244.267h148.942v-244.267c0-19.66 16.086-35.746 35.746-35.746h232.351c19.66 0 35.746 16.086 35.746 35.746v333.632h101.282c14.299 0 27.405 8.937 32.767 22.043s2.382 28.597-7.744 38.726l-465.894 472.446c-13.703 13.703-36.341 14.299-50.045 0.595l-486.744-472.446c-10.724-10.129-13.703-25.617-8.341-39.321 5.362-13.701 18.468-22.043 32.767-22.043zM521.521 818.344l381.293-386.060h-51.237c-19.66 0-35.746-16.086-35.746-35.746v-333.632h-160.858v244.267c0 19.66-16.086 35.746-35.746 35.746h-220.432c-19.66 0-35.746-16.086-35.746-35.746v-244.267h-172.774v333.632c0 19.66-16.086 35.746-35.746 35.746h-30.979l397.974 386.060z" />
<glyph unicode="&#xe90d;" glyph-name="io-list" horiz-adv-x="1076" d="M1025.135 360.705l-51.642 51.644c-21.096 21.093-55.398 21.054-76.489 0l-278.889-278.899-38.435-140.961-9.402-9.404c-7.031-7.031-7.049-18.375-0.108-25.461l-0.092-0.363 0.345 0.092c3.514-3.443 8.081-5.218 12.667-5.218 4.641 0 9.277 1.774 12.812 5.309l9.423 9.421 140.947 38.437 278.883 278.899c21.093 21.091 21.093 55.41-0.020 76.503zM659.959 124.027l185.614 185.596 76.889-76.871-185.615-185.614-76.887 76.889zM643.594 89.141l58.352-58.348-80.241-21.894 21.889 80.242zM999.51 309.822l-51.445-51.445-76.889 76.869 51.445 51.445c6.977 6.976 18.306 6.955 25.262 0.018l51.644-51.644c6.962-6.94 6.962-18.285-0.018-25.243zM515.477 718.109c-10.001 0-18.119-8.099-18.119-18.121s8.119-18.121 18.119-18.121h326.18c10.002 0 18.121 8.099 18.121 18.121 0 10.020-8.119 18.121-18.121 18.121h-326.18zM859.78 446.294c0 10.020-8.119 18.121-18.121 18.121h-326.18c-10.001 0-18.119-8.099-18.119-18.121 0-10.019 8.119-18.121 18.119-18.121h326.18c10.002 0 18.121 8.117 18.121 18.121zM399.142 804.348c-7.575 6.523-19.029 5.671-25.552-1.957l-113.22-132.068-69.259 51.936c-8.008 5.979-19.353 4.386-25.369-3.626-6.016-7.991-4.388-19.355 3.624-25.353l82.832-62.137c3.261-2.447 7.066-3.624 10.872-3.624 5.128 0 10.202 2.156 13.772 6.341l124.257 144.967c6.503 7.578 5.634 19.013-1.957 25.52zM399.142 550.654c-7.575 6.523-19.029 5.671-25.552-1.959l-113.22-132.066-69.259 51.934c-8.008 6-19.353 4.369-25.369-3.624-6.016-7.991-4.388-19.353 3.624-25.351l82.832-62.139c3.261-2.447 7.066-3.626 10.872-3.626 5.128 0 10.202 2.156 13.772 6.343l124.257 144.967c6.503 7.578 5.634 19.012-1.957 25.52zM373.57 276.878l-113.22-132.050-69.241 51.937c-8.008 5.996-19.353 4.365-25.369-3.627s-4.388-19.353 3.624-25.354l82.832-62.137c3.261-2.445 7.066-3.624 10.872-3.624 5.128 0 10.202 2.156 13.772 6.343l124.257 144.951c6.505 7.592 5.636 19.026-1.957 25.531-7.592 6.512-19.045 5.641-25.571-1.969zM479.236-6.736h-232.386c-101.675 0-184.4 82.729-184.4 184.405v537.269c0 101.678 82.725 184.382 184.4 184.382h537.253c101.678 0 184.403-82.704 184.403-184.382v-214.263c0-10.022 8.117-18.121 18.118-18.121s18.121 8.097 18.121 18.121v214.262c0 121.667-98.978 220.642-220.64 220.642h-537.255c-121.665-0.018-220.638-98.977-220.638-220.642v-537.253c0-121.669 98.977-220.638 220.638-220.638h232.386c10.001 0 18.119 8.097 18.119 18.118s-8.119 18.102-18.119 18.102z" />
<glyph unicode="&#xe90e;" glyph-name="io-lock" horiz-adv-x="768" d="M384 179.809c52.8 0 96 43.886 96 97.524s-43.2 97.524-96 97.524c-52.8 0-96-43.886-96-97.524s43.2-97.524 96-97.524zM672 618.667h-48v97.524c0 134.583-107.52 243.809-240 243.809s-240-109.227-240-243.809v-97.524h-48c-52.8 0-96-43.886-96-97.524v-487.615c0-53.641 43.2-97.527 96-97.527h576c52.8 0 96 43.887 96 97.527v487.615c0 53.638-43.2 97.524-96 97.524zM235.2 716.191c0 83.383 66.72 151.162 148.8 151.162s148.8-67.779 148.8-151.162v-97.524h-297.6v97.524zM672 33.527h-576v487.615h576v-487.615z" />
<glyph unicode="&#xe90f;" glyph-name="io-logout" horiz-adv-x="1028" d="M803.346 341.845c-18.079-18.079-18.079-47.391 0-65.474 9.035-9.043 20.886-13.561 32.738-13.561 11.846 0 23.697 4.518 32.74 13.561l138.881 138.885c1.072 1.070 2.084 2.195 3.050 3.365 0.233 0.283 0.434 0.588 0.659 0.879 0.705 0.902 1.403 1.809 2.040 2.763 0.181 0.265 0.329 0.55 0.504 0.825 0.645 1.002 1.271 2.014 1.839 3.066 0.104 0.201 0.191 0.41 0.293 0.61 0.59 1.136 1.155 2.293 1.648 3.488 0.056 0.133 0.1 0.279 0.155 0.416 0.51 1.259 0.972 2.534 1.373 3.839 0.044 0.151 0.074 0.311 0.122 0.462 0.375 1.291 0.713 2.588 0.978 3.915 0.078 0.383 0.112 0.773 0.179 1.157 0.189 1.102 0.386 2.205 0.494 3.331 0.159 1.532 0.235 3.074 0.235 4.624s-0.076 3.094-0.235 4.622c-0.108 1.114-0.297 2.207-0.49 3.301-0.070 0.396-0.106 0.799-0.183 1.191-0.261 1.319-0.604 2.604-0.976 3.881-0.046 0.169-0.074 0.335-0.126 0.5-0.394 1.301-0.861 2.56-1.365 3.809-0.060 0.147-0.102 0.303-0.163 0.45-0.492 1.185-1.052 2.333-1.634 3.466-0.108 0.209-0.201 0.428-0.307 0.632-0.56 1.046-1.185 2.048-1.819 3.042-0.183 0.281-0.335 0.572-0.52 0.853-0.634 0.952-1.329 1.851-2.038 2.751-0.227 0.293-0.428 0.6-0.665 0.887-0.962 1.175-1.972 2.297-3.050 3.367l-138.881 138.881c-18.087 18.079-47.399 18.079-65.474 0-18.081-18.081-18.081-47.395 0-65.474l59.858-59.856h-536.389c-25.568 0-46.297-20.729-46.297-46.299 0-25.568 20.727-46.297 46.297-46.297h536.383l-59.854-59.858zM2.733 447.998c0-208.826 169.89-378.713 378.713-378.713 126.004 0 243.389 62.406 314.009 166.938 14.316 21.187 8.742 49.965-12.443 64.279-21.193 14.312-49.963 8.742-64.281-12.443-53.379-79.009-142.081-126.177-237.285-126.177-157.764 0-286.118 128.349-286.118 286.118s128.353 286.122 286.118 286.124c95.487 0 184.332-47.383 237.668-126.751 14.266-21.225 43.030-26.861 64.255-12.601 21.217 14.264 26.861 43.028 12.599 64.249-70.572 105.004-188.149 167.697-314.523 167.697-208.824-0.004-378.713-169.894-378.713-378.719z" />
<glyph unicode="&#xe910;" glyph-name="io-megaphone" d="M653.454 659.042v192.424l-341.138-164.508h-312.316v-372.282h84.102v-270.14h178.018v270.14h50.198l341.138-164.508v212.326c68.746 14.302 120.562 75.348 120.562 148.274-0.002 72.928-51.818 133.972-120.564 148.274zM195.482 111.174h-44.742v203.502h44.742v-203.502zM286.612 381.314h-219.974v239.008h219.974v-239.008zM586.816 256.284l-233.568 112.634v263.798l233.568 112.634v-489.066zM653.454 431.804v157.93c31.53-12.38 53.924-43.096 53.924-78.966s-22.394-66.586-53.924-78.964zM967.174 680.982l-53.244-40.074c28.414-37.75 43.432-82.752 43.432-130.142s-15.018-92.392-43.432-130.142l53.244-40.074c37.174 49.396 56.826 108.256 56.826 170.218s-19.652 120.818-56.826 170.214zM860.626 619.42l-53.244-40.074c14.974-19.894 22.888-43.608 22.888-68.582s-7.914-48.686-22.888-68.582l53.244-40.074c23.736 31.538 36.282 69.11 36.282 108.656s-12.546 77.116-36.282 108.656z" />
<glyph unicode="&#xe911;" glyph-name="io-notifications" d="M512-64c56.32 0 102.4 46.080 102.4 102.4h-204.8c0-56.32 46.080-102.4 102.4-102.4zM844.8 243.2v281.6c0 158.72-107.52 286.72-256 322.56v35.84c0 40.96-35.84 76.8-76.8 76.8s-76.8-35.84-76.8-76.8v-35.84c-148.48-35.84-256-163.84-256-322.56v-281.6l-102.4-102.4v-51.2h870.4v51.2l-102.4 102.4zM742.4 192h-460.8v332.8c0 128 102.4 230.4 230.4 230.4s230.4-102.4 230.4-230.4v-332.8z" />
<glyph unicode="&#xe912;" glyph-name="io-picture" d="M0 43.966c0-59.632 48.543-107.966 107.966-107.966h808.069c59.632 0 107.966 48.543 107.966 107.966v808.069c0 59.632-48.543 107.966-107.966 107.966h-808.069c-59.632 0-107.966-48.543-107.966-107.966 0 0 0-808.069 0-808.069zM916.034-12.737h-808.069c-31.176 0-56.703 25.527-56.703 56.703v134.957l194.171 194.171 165.924-165.924c10.043-10.043 26.154-10.043 36.198 0l299.626 299.626 225.556-225.556v-237.273c0-31.176-25.527-56.703-56.703-56.703zM107.966 908.737h808.069c31.176 0 56.703-25.527 56.703-56.703v-498.19l-207.562 207.353c-10.043 10.043-26.154 10.043-36.198 0l-299.626-299.626-165.924 165.924c-10.043 10.043-26.154 10.043-36.198 0l-175.967-175.967v600.507c0 31.176 25.527 56.703 56.703 56.703zM317.411 549.689c71.977 0 130.354 58.586 130.354 130.354s-58.586 130.354-130.354 130.354-130.354-58.586-130.354-130.354 58.377-130.354 130.354-130.354zM317.411 759.134c43.73 0 79.091-35.57 79.091-79.091s-35.57-79.091-79.091-79.091-79.091 35.57-79.091 79.091 35.361 79.091 79.091 79.091z" />
<glyph unicode="&#xe913;" glyph-name="io-plus" d="M940.719 448c0-236.772-191.943-428.719-428.719-428.719v-77.947c279.826 0 506.667 226.841 506.667 506.667h-77.947zM512 19.281c-236.772 0-428.719 191.943-428.719 428.719h-77.947c0-279.826 226.841-506.667 506.667-506.667v77.947zM83.281 448c0 236.772 191.942 428.719 428.719 428.719v77.947c-279.826 0-506.667-226.841-506.667-506.667h77.947zM512 876.719c236.772 0 428.719-191.942 428.719-428.719h77.947c0 279.826-226.841 506.667-506.667 506.667v-77.947zM796.301 488.649h-243.808v243.81h-81.27v-243.81h-243.81v-81.27h243.81v-243.808h81.27v243.808h243.808v81.27z" />
<glyph unicode="&#xe914;" horiz-adv-x="969" d="M944.521 145.978c-35.591 121.204-214.224 107.759-291.325 142.566-77.099 34.807-65.063 151.591-74.838 171.91h-188.087c-9.758-20.319 2.28-137.119-74.838-171.91-77.1-34.807-255.751-21.365-291.324-142.566-19.625-66.853-18.693-87.3-24.109-161.355 0 0 245.113-48.756 478.781-48.756s489.868 48.756 489.868 48.756c-5.436 74.074-4.503 94.501-24.128 161.355z" />
<glyph unicode="&#xe915;" horiz-adv-x="969" d="M944.551 145.978c-35.588 121.205-214.221 107.759-291.323 142.566-77.099 34.807-65.063 151.591-74.839 171.91h-99.593c0 0-2.295-163.807 74.804-198.614s255.75-21.365 291.324-142.567c18.692-63.662 18.728-85.241 23.375-151.123 61.387 9.042 100.349 16.456 100.349 16.456-5.402 74.091-4.472 94.518-24.097 161.371z" />
<glyph unicode="&#xe916;" horiz-adv-x="969" d="M533.042-63.117c33.026 85.62 77.118 237.409 84.149 383.532h-266.263c7.031-146.304 51.25-298.275 84.331-383.84 14.493-0.36 29.024-0.542 43.52-0.542 17.991 0.003 36.126 0.327 54.263 0.85z" />
<glyph unicode="&#xe917;" horiz-adv-x="969" d="M603.774 265.73l-66.391-63.877-15.696 97.528 82.087-33.651z" />
<glyph unicode="&#xe918;" horiz-adv-x="969" d="M361.444 265.838l69.602-63.877 12.699 98.251-82.301-34.373z" />
<glyph unicode="&#xe919;" horiz-adv-x="969" d="M524.385 300.212h-80.456l-6.099-19.847 92.798-0.543-6.243 20.389z" />
<glyph unicode="&#xe91a;" horiz-adv-x="969" d="M443.928 300.212l-6.099-19.847 3.517-2.311 2.582 22.158z" />
<glyph unicode="&#xe91b;" horiz-adv-x="969" d="M530.53 279.715l-8.844 19.667 3.642-22.662 5.202 2.995z" />
<glyph unicode="&#xe91c;" horiz-adv-x="969" d="M528.911-63.327l1.848 25.642-19.408 258.468h-51.142l-22.657-258.484 1.867-25.894c13.149-0.271 26.298-0.454 39.429-0.454 16.606 0 33.323 0.271 50.063 0.722z" />
<glyph unicode="&#xe91d;" horiz-adv-x="969" d="M460.246 219.627l50.947 1.156 1.041-14.437-51.988 13.281z" />
<glyph unicode="&#xe91e;" horiz-adv-x="969" d="M423.715 291.559l120.367 0.074-6.852-41.324-27.176-30.71h-49.872l-29.599 30.71-6.868 41.25z" />
<glyph unicode="&#xe91f;" horiz-adv-x="969" d="M443.69 300.152l-82.087 44.894c0 0-10.816-15.464-37.798-52.040l101.246-73.367 8.63 47.909 10.009 32.604z" />
<glyph unicode="&#xe920;" horiz-adv-x="969" d="M521.41 300.152l82.087 44.894c0 0 10.816-15.464 37.798-52.040l-101.246-73.367-8.63 47.909-10.009 32.604z" />
<glyph unicode="&#xe921;" horiz-adv-x="969" d="M603.497 345.046l-82.087-44.894 5.668-18.53c7.57-8.353 16.306-15.14 26.423-19.705 8.933-4.023 19.213-7.416 30.476-10.43l57.279 41.501c-26.94 36.595-37.76 52.060-37.76 52.060z" />
<glyph unicode="&#xe922;" horiz-adv-x="969" d="M719.925 155.154l-48.936 17.846 43.967 12.18-41.905 96.212-130.053-344.177c15.249 0.523 30.476 1.209 45.617 2.037l131.311 215.902z" />
<glyph unicode="&#xe923;" horiz-adv-x="969" d="M250.453 185.136l43.967-12.18-48.936-17.846 131.544-216.281c15.051-0.792 30.227-1.425 45.438-1.893l-130.36 343.35-41.653-95.149z" />
<glyph unicode="&#xe924;" horiz-adv-x="969" d="M705.988 152.327l-47.341 20.030 42.962 15.355-28.737 93.541-53.96 42.207-102.485-387.105c22.245 0.468 44.561 1.317 66.713 2.491l122.847 213.482z" />
<glyph unicode="&#xe925;" horiz-adv-x="969" d="M618.938 323.459l-20.037-75.659c27.25-6.244 58.677-11.259 89.91-18.334l-15.91 51.787-53.963 42.207z" />
<glyph unicode="&#xe926;" horiz-adv-x="969" d="M291.911 280.206l-28.488-92.478 42.962-15.355-47.341-20.030 123.077-213.88c22.028-1.101 44.29-1.876 66.535-2.256l-102.536 387.252-54.209-43.253z" />
<glyph unicode="&#xe927;" horiz-adv-x="969" d="M668.194 585.989c-6.672-37.319 4.273-70.531 24.447-74.18s41.937 23.645 48.609 60.964c6.672 37.319-4.273 70.531-24.447 74.181s-41.937-23.645-48.61-60.965z" />
<glyph unicode="&#xe928;" horiz-adv-x="969" d="M251.214 646.833c-20.174-3.65-31.119-36.861-24.447-74.18s28.435-64.614 48.61-60.965c20.174 3.65 31.119 36.861 24.447 74.181s-28.435 64.614-48.609 60.964z" />
<glyph unicode="&#xe929;" horiz-adv-x="969" d="M689.224 808.061h-409.824c0 0-114.861-470.689 204.857-516.248 319.846 45.56 204.967 516.248 204.967 516.248z" />
<glyph unicode="&#xe92a;" horiz-adv-x="969" d="M484.048 291.812c319.848 45.56 204.966 516.248 204.966 516.248h-47.95c13.13-196.61 31.303-301.050-44.092-414.911-59.737-90.22-112.924-101.337-112.924-101.337z" />
<glyph unicode="&#xe92b;" horiz-adv-x="969" d="M574.702 942.407c0 0-63.269 29.953-148.334 11.692-63.681-13.676-167.312-57.238-190.633-150.544 0 0-34.89-152.438 24.521-218.084 0 0-2.923 59.547 3.051 106.947 0 0 35.663-15.878 107.524-14.956 96.347 1.226 189.72 41.015 218.439 84.608 0 0-3.302-62.705-34.714-88.292 0 0 110.18 17.323 142.757 83.095 0 0 10.907-57.578 10.907-164.24 0 0 17.2 24.106 21.219 62.94 9.114 88.092-7.445 209.746-73.008 205.685 0.003 0.003-27.767 55.434-81.729 81.149z" />
<glyph unicode="&#xe92c;" horiz-adv-x="969" d="M554.598 673.827c31.393 25.606 34.711 88.292 34.711 88.292-28.722-43.578-122.071-83.364-218.437-84.61-69.458-0.883-105.102 13.911-107.4 14.906 4.574-1.968 140.927-59.565 292.579 12.469 0 0-8.236-30.585-25.977-41.106 0 0 140.012 2.546 167.295 93.127-32.572-65.755-142.771-83.078-142.771-83.078z" />
<glyph unicode="&#xe92d;" glyph-name="io-public" d="M512.284 945.749c-274.773 0-497.777-223.004-497.777-497.777s223.004-497.781 497.777-497.781c274.773 0 497.781 223.008 497.781 497.781s-223.008 497.777-497.781 497.777zM462.507 53.231c-196.623 24.397-348.444 191.648-348.444 394.741 0 30.862 3.982 60.231 10.453 89.102l238.435-238.435v-49.778c0-54.755 44.8-99.555 99.556-99.555v-96.074zM805.973 179.669c-12.943 40.32-49.777 69.191-94.577 69.191h-49.778v149.333c0 27.378-22.4 49.778-49.777 49.778h-298.667v99.555h99.556c27.377 0 49.777 22.4 49.777 49.778v99.555h99.556c54.755 0 99.555 44.8 99.555 99.556v20.409c145.849-59.236 248.889-202.098 248.889-368.853 0-103.538-39.825-197.618-104.533-268.303z" />
<glyph unicode="&#xe92e;" glyph-name="io-search" d="M711.225 334.277h-45.17l-15.701 15.588c55.467 64.683 89.202 148.537 89.202 240.414 0 204.231-165.547 369.778-369.778 369.778s-369.778-165.547-369.778-369.778c0-204.233 165.547-369.779 369.778-369.779 91.876 0 175.673 33.678 240.356 89.088l15.701-15.588v-45.056l284.331-283.933 84.821 84.821-283.762 284.444zM369.778 334.277c-141.426 0-256 114.574-256 256.002 0 141.369 114.574 256 256 256 141.369 0 256-114.631 256-256 0-141.427-114.631-256.002-256-256.002z" />
<glyph unicode="&#xe92f;" glyph-name="io-stats" d="M939.857 51.895h-823.963v823.963c0 18.257-14.288 32.546-32.546 32.546s-32.546-14.288-32.546-32.546v-856.509c0-18.257 14.288-32.546 32.546-32.546h856.509c18.257 0 32.546 14.288 32.546 32.546s-14.288 32.546-32.546 32.546zM431.033 177.315v468.341c0 18.257-14.288 32.546-32.546 32.546s-32.546-14.288-32.546-32.546v-468.341c0-18.257 14.288-32.546 32.546-32.546s32.546 14.288 32.546 32.546zM273.86 177.315v468.341c0 18.257-14.288 32.546-32.546 32.546s-32.546-14.288-32.546-32.546v-468.341c0-18.257 14.288-32.546 32.546-32.546s32.546 14.288 32.546 32.546zM745.377 177.315v468.341c0 18.257-14.288 32.546-32.546 32.546s-32.546-14.288-32.546-32.546v-468.341c0-18.257 14.288-32.546 32.546-32.546s32.546 14.288 32.546 32.546zM902.549 177.315v234.171c0 18.257-14.288 32.546-32.546 32.546s-32.546-14.288-32.546-32.546v-234.171c0-18.257 14.288-32.546 32.546-32.546s32.546 14.288 32.546 32.546zM588.205 177.315v234.171c0 18.257-14.288 32.546-32.546 32.546s-32.546-14.288-32.546-32.546v-234.171c0-18.257 14.288-32.546 32.546-32.546s32.546 14.288 32.546 32.546z" />
<glyph unicode="&#xe930;" glyph-name="io-user" horiz-adv-x="948" d="M691.856 578.49v179.517c0 109.48-88.835 198.317-198.317 198.317h-38.703c-109.48 0-198.317-88.837-198.317-198.317v-179.517c0-32.437 13.27-62.663 36.125-84.783v-138.232c-43.126-22.116-148.554-79.619-246.975-160.716-28.75-23.592-44.97-58.239-44.97-95.473v-123.115c0-20.281 16.221-36.495 36.493-36.495h873.623c20.275 0 36.487 16.217 36.487 36.495v123.115c0 37.227-16.217 71.879-44.966 95.471-98.422 80.723-203.846 138.597-246.975 160.718v138.232c23.227 21.749 36.495 52.346 36.495 84.783zM856.26 138.364c11.804-9.585 18.434-23.964 18.434-39.077v-86.626h-800.637v86.626c0 15.111 6.634 29.491 18.428 39.077 108.377 89.2 225.963 148.55 248.449 159.603 15.113 7.375 25.068 23.223 25.068 39.812v173.249c0 12.166-6.266 23.594-16.221 30.23-12.537 8.479-19.906 22.118-19.906 36.86v179.515c0 69.301 56.396 125.332 125.324 125.332h38.705c69.307 0 125.334-56.4 125.334-125.332v-179.515c0-14.742-7.373-28.752-19.908-36.86-10.322-6.636-16.221-18.065-16.221-30.23v-173.247c0-16.956 9.951-32.439 25.066-39.812 22.126-11.053 139.716-70.764 248.087-159.605z" />
<glyph unicode="&#xe931;" glyph-name="io-video" d="M512-13.991c254.809 0 461.991 207.181 461.991 461.991s-207.181 461.991-461.991 461.991-461.991-207.181-461.991-461.991 207.181-461.991 461.991-461.991zM512 844.899c219.088 0 396.899-177.811 396.899-396.899s-177.811-396.899-396.899-396.899-396.899 178.605-396.899 396.899 177.811 396.899 396.899 396.899zM421.507 209.86c3.969-1.588 7.938-2.381 12.701-2.381 8.732 0 16.67 3.175 23.020 9.526l209.563 210.357c6.35 6.35 9.526 14.288 9.526 23.020s-3.175 17.464-9.526 23.020l-210.357 210.357c-9.526 9.526-23.020 11.907-35.721 7.144-11.907-4.763-19.845-16.67-19.845-30.164v-420.713c0-12.701 7.938-24.608 20.639-30.164zM465.96 582.152l131.771-131.771-131.771-131.771v263.541z" />
<glyph unicode="&#xe932;" glyph-name="io-file" d="M895.866 752.742c-0.068 6.152-2.448 12.18-6.97 16.704l-183.53 183.532c-0.008 0.008-0.014 0.010-0.022 0.016-4.334 4.33-10.322 7.006-16.932 7.006h-509.856c-27.834 0-50.476-22.64-50.476-50.474v-923.050c0-27.832 22.64-50.474 50.474-50.474h666.888c27.832 0 50.474 22.64 50.474 50.474v766.018c0.004 0.088-0.042 0.162-0.050 0.248zM712.388 878.138l101.668-101.668h-99.144c-1.39 0-2.524 1.134-2.524 2.524v99.144zM847.966-13.526c0-1.39-1.132-2.522-2.522-2.522h-666.888c-1.39 0-2.522 1.132-2.522 2.522v923.052c0 1.39 1.132 2.522 2.522 2.522h485.88v-133.054c0-27.832 22.644-50.478 50.478-50.478h133.054v-742.042zM724.176 631.972h-424.352c-13.24 0-23.976-10.734-23.976-23.976 0-13.24 10.736-23.976 23.976-23.976h424.35c13.24 0 23.976 10.736 23.976 23.976 0.002 13.242-10.736 23.976-23.974 23.976zM724.176 487.294h-424.352c-13.24 0-23.976-10.736-23.976-23.976s10.736-23.976 23.976-23.976h424.35c13.24 0 23.976 10.736 23.976 23.976 0.002 13.24-10.736 23.976-23.974 23.976zM724.176 342.618h-424.352c-13.24 0-23.976-10.736-23.976-23.976 0-13.242 10.736-23.976 23.976-23.976h424.35c13.24 0 23.976 10.734 23.976 23.976 0.002 13.238-10.736 23.976-23.974 23.976zM512 197.938h-212.176c-13.24 0-23.976-10.736-23.976-23.976 0-13.242 10.736-23.976 23.976-23.976h212.176c13.24 0 23.976 10.734 23.976 23.976s-10.736 23.976-23.976 23.976z" />
<glyph unicode="&#xe933;" glyph-name="io-settings" d="M657.956 222.234c-10.77 6.475-21.823 12.979-32.88 19.358 2.598 22.149 2.606 44.552 0.012 66.66 11.095 6.401 22.145 12.904 32.864 19.35 18.046 10.844 25.568 33.726 17.494 53.23 0 0 0 0-0.002 0l-23.552 56.858c-8.078 19.496-29.565 30.363-50.003 25.271-12.149-3.024-24.56-6.238-36.928-9.557-13.806 17.472-29.65 33.31-47.144 47.128 3.321 12.37 6.538 24.785 9.563 36.936 5.092 20.43-5.773 41.926-25.269 50.003l-56.858 23.552c-19.496 8.078-42.384 0.562-53.232-17.488-6.461-10.752-12.969-21.807-19.356-32.88-22.142 2.6-44.546 2.606-66.658 0.016-6.407 11.105-12.912 22.157-19.348 32.864-10.852 18.046-33.736 25.566-53.232 17.488l-56.858-23.552c-19.492-8.074-30.361-29.574-25.269-50.003 3.032-12.176 6.244-24.588 9.557-36.926-17.468-13.804-33.31-29.652-47.126-47.144-12.396 3.327-24.813 6.542-36.94 9.563-20.436 5.096-41.928-5.779-50.007-25.273l-23.552-56.858c-8.074-19.498-0.554-42.382 17.488-53.226 10.756-6.463 21.809-12.969 32.88-19.358-2.596-22.14-2.602-44.542-0.012-66.66-11.081-6.391-22.128-12.896-32.872-19.35-18.042-10.848-25.564-33.73-17.488-53.228l23.556-56.86c8.074-19.494 29.559-30.367 50.005-25.271 12.133 3.020 24.546 6.232 36.922 9.557 13.806-17.47 29.652-33.308 47.144-47.128-3.321-12.38-6.538-24.801-9.561-36.936-5.092-20.43 5.773-41.93 25.269-50.003l56.86-23.554c5.285-2.187 10.81-3.231 16.282-3.231 14.73 0 29.039 7.564 36.958 20.719 6.411 10.668 12.916 21.721 19.354 32.876 22.14-2.596 44.548-2.598 66.66-0.012 6.361-11.027 12.866-22.076 19.35-32.868 10.848-18.046 33.728-25.562 53.232-17.486l56.858 23.55c19.49 8.076 30.361 29.574 25.267 50.005-3.006 12.069-6.22 24.486-9.553 36.924 17.464 13.804 33.308 29.652 47.126 47.144 12.362-3.315 24.779-6.53 36.936-9.559 20.43-5.096 41.928 5.771 50.005 25.271l23.55 56.862c8.072 19.498 0.55 42.38-17.492 53.226zM610.481 131.996c-11.678 2.923-23.586 6.018-35.422 9.208-16.761 4.508-34.443-1.387-45.056-15.019-12.196-15.669-26.311-29.784-41.954-41.964-13.619-10.607-19.502-28.289-14.991-45.036 3.207-11.915 6.299-23.809 9.204-35.406l-52.264-21.647c-6.216 10.373-12.441 20.968-18.526 31.541-8.658 15.035-25.319 23.367-42.45 21.247-19.669-2.444-39.635-2.444-59.332 0.008-17.179 2.134-33.826-6.198-42.482-21.237-6.158-10.69-12.384-21.295-18.532-31.559l-52.264 21.649c2.923 11.658 6.015 23.562 9.208 35.418 4.514 16.755-1.383 34.443-15.019 45.058-15.667 12.194-29.782 26.307-41.964 41.946-10.603 13.623-28.282 19.506-45.038 14.997-11.85-3.19-23.749-6.285-35.404-9.204l-21.649 52.262c10.324 6.19 20.926 12.414 31.541 18.526 15.037 8.66 23.375 25.315 21.249 42.45-2.448 19.673-2.444 39.635 0.004 59.332 2.136 17.149-6.196 33.826-21.241 42.484-10.611 6.112-21.215 12.336-31.555 18.536l21.651 52.264c11.643-2.919 23.544-6.011 35.416-9.208 16.749-4.514 34.439 1.383 45.058 15.019 12.196 15.667 26.311 29.784 41.946 41.962 13.623 10.607 19.506 28.286 14.997 45.042-3.18 11.812-6.275 23.709-9.206 35.402l52.266 21.647c6.17-10.296 12.394-20.896 18.524-31.543 8.66-15.037 25.337-23.387 42.45-21.245 19.661 2.448 39.625 2.448 59.338-0.010 17.157-2.136 33.824 6.206 42.48 21.243 6.108 10.613 12.336 21.217 18.53 31.555l52.266-21.647c-2.927-11.672-6.020-23.572-9.21-35.42-4.512-16.753 1.385-34.443 15.019-45.056 15.663-12.196 29.782-26.309 41.964-41.948 10.605-13.619 28.276-19.504 45.040-14.995 11.84 3.188 23.739 6.285 35.402 9.206l21.649-52.262c-10.312-6.18-20.912-12.406-31.543-18.526-15.037-8.66-23.379-25.319-21.249-42.452 2.448-19.665 2.446-39.629-0.010-59.34-2.132-17.149 6.206-33.822 21.243-42.476 10.595-6.102 21.201-12.328 31.559-18.532l-21.643-52.27zM483.722 334.724c0 0 0 0-0.002 0.002-32.975 79.609-124.563 117.551-204.184 84.576-79.609-32.979-117.551-124.575-84.574-204.186 15.972-38.567 46.014-68.6 84.576-84.576 19.283-7.987 39.542-11.979 59.804-11.979 20.257 0 40.52 3.992 59.806 11.979 79.605 32.975 117.545 124.571 84.574 204.184zM381.595 172.903c-27.246-11.286-57.258-11.284-84.512 0-27.248 11.284-48.469 32.511-59.757 59.759-23.305 56.256 3.508 120.975 59.761 144.272 13.776 5.706 28.052 8.409 42.11 8.409 43.351 0 84.564-25.692 102.161-68.168 23.299-56.25-3.512-120.969-59.763-144.272zM993.509 758.045c-7.913 1.185-16.045 2.335-24.231 3.427-4.126 13.72-9.636 27.020-16.434 39.655 5.008 6.554 9.947 13.117 14.719 19.566 10.593 14.328 9.061 34.647-3.562 47.265l-31.628 31.624c-12.623 12.625-32.945 14.157-47.269 3.558-6.469-4.789-13.033-9.726-19.564-14.717-12.631 6.799-25.931 12.308-39.655 16.438-1.094 8.186-2.239 16.316-3.425 24.229-2.634 17.619-18.089 30.911-35.936 30.911h-44.731c-17.852 0-33.302-13.29-35.936-30.909-1.183-7.907-2.331-16.039-3.425-24.229-13.724-4.126-27.024-9.638-39.655-16.436-6.527 4.994-13.095 9.933-19.56 14.715-14.328 10.597-34.651 9.067-47.271-3.556l-31.622-31.624c-12.625-12.621-14.163-32.943-3.56-47.271 4.767-6.447 9.704-13.015 14.711-19.564-6.795-12.631-12.308-25.931-16.434-39.655-8.186-1.094-16.316-2.243-24.229-3.427-17.621-2.638-30.911-18.085-30.911-35.938v-44.727c0-17.852 13.284-33.302 30.907-35.938 7.911-1.185 16.041-2.335 24.231-3.427 4.128-13.72 9.636-27.022 16.434-39.653-5.004-6.548-9.943-13.109-14.719-19.566-10.591-14.324-9.065-34.649 3.562-47.263l31.628-31.63c12.621-12.625 32.941-14.153 47.269-3.556 6.469 4.785 13.031 9.724 19.562 14.713 12.635-6.799 25.935-12.308 39.657-16.436 1.088-8.186 2.239-16.314 3.423-24.231 2.636-17.619 18.089-30.909 35.938-30.909h44.731c17.85 0 33.302 13.284 35.934 30.911 1.185 7.915 2.331 16.045 3.425 24.233 13.724 4.124 27.022 9.638 39.655 16.436 6.53-4.994 13.095-9.933 19.562-14.717 14.324-10.599 34.649-9.069 47.269 3.556l31.628 31.624c12.623 12.619 14.157 32.943 3.558 47.271-4.777 6.455-9.714 13.021-14.713 19.562 6.793 12.631 12.306 25.929 16.434 39.655 8.186 1.096 16.318 2.243 24.229 3.427 17.623 2.636 30.913 18.087 30.913 35.938v44.729c-0.002 17.848-13.288 33.298-30.909 35.936zM980.855 683.602c-7.188-1.042-14.519-2.054-21.877-3.014-14.551-1.897-26.465-12.226-30.343-26.309-3.715-13.483-9.106-26.495-16.025-38.671-7.224-12.712-6.108-28.443 2.839-40.081 4.514-5.865 8.989-11.77 13.344-17.605l-22.817-22.819c-5.851 4.367-11.756 8.841-17.611 13.344-11.631 8.953-27.367 10.059-40.081 2.843-12.178-6.919-25.188-12.312-38.665-16.027-14.091-3.883-24.419-15.796-26.311-30.343-0.96-7.357-1.972-14.691-3.014-21.877h-32.274c-1.042 7.188-2.050 14.519-3.014 21.871-1.897 14.555-12.222 26.465-26.309 30.349-13.481 3.715-26.487 9.106-38.671 16.025-12.712 7.222-28.447 6.11-40.079-2.841-5.855-4.504-11.754-8.975-17.611-13.344l-22.819 22.819c4.355 5.841 8.83 11.742 13.348 17.613 8.943 11.633 10.059 27.365 2.835 40.075-6.917 12.178-12.31 25.19-16.023 38.669-3.881 14.087-15.792 24.413-30.345 26.311-7.357 0.96-14.689 1.968-21.877 3.014v32.268c7.188 1.044 14.521 2.056 21.877 3.014 14.553 1.899 26.465 12.228 30.341 26.311 3.717 13.481 9.106 26.491 16.025 38.671 7.226 12.712 6.11 28.445-2.835 40.079-4.522 5.875-8.993 11.778-13.346 17.609l22.819 22.819c5.851-4.367 11.752-8.841 17.607-13.34 11.627-8.953 27.363-10.071 40.085-2.845 12.174 6.917 25.188 12.308 38.665 16.027 14.093 3.883 24.417 15.796 26.311 30.343 0.962 7.357 1.974 14.689 3.016 21.875h32.274c1.040-7.184 2.050-14.517 3.008-21.869 1.897-14.555 12.228-26.467 26.311-30.347 13.481-3.717 26.493-9.11 38.671-16.027 12.718-7.224 28.449-6.102 40.077 2.841 5.857 4.504 11.756 8.975 17.613 13.344l22.817-22.819c-4.351-5.833-8.826-11.736-13.344-17.613-8.945-11.633-10.059-27.363-2.839-40.073 6.915-12.18 12.31-25.194 16.025-38.671 3.879-14.087 15.79-24.413 30.343-26.311 7.353-0.962 14.689-1.97 21.877-3.016v-32.272h0.002zM764.157 792.58c-51.188 0-92.837-41.647-92.837-92.839 0-51.196 41.643-92.843 92.837-92.843s92.839 41.647 92.839 92.843c0 51.192-41.645 92.839-92.839 92.839zM764.157 648.17c-28.433 0-51.571 23.134-51.571 51.573s23.134 51.571 51.571 51.571 51.571-23.136 51.571-51.571c0-28.439-23.136-51.573-51.571-51.573z" />
</font>
</defs>
</svg>
